<?xml version="1.0" standalone="no"?>
<!DOCTYPE svg PUBLIC "-//W3C//DTD SVG 20010904//EN"
 "http://www.w3.org/TR/2001/REC-SVG-20010904/DTD/svg10.dtd">
<svg version="1.0" xmlns="http://www.w3.org/2000/svg"
 width="700.000000pt" height="700.000000pt" viewBox="0 0 700.000000 700.000000"
 preserveAspectRatio="xMidYMid meet">
<metadata>
Created by potrace 1.11, written by Peter Selinger 2001-2013
</metadata>
<g transform="translate(0.000000,700.000000) scale(0.100000,-0.100000)"
fill="#000000" stroke="none">
<path d="M5107 6994 c-1 -1 -27 -4 -57 -8 -109 -12 -193 -37 -294 -88 -234
-118 -392 -318 -452 -573 -20 -84 -22 -273 -5 -360 91 -452 491 -872 1131
-1189 139 -68 147 -71 215 -71 63 1 80 6 170 50 324 158 592 342 794 547 88
90 195 223 222 277 7 14 21 37 30 51 28 42 89 196 111 283 26 100 31 331 9
412 -36 135 -92 254 -156 334 -167 207 -429 332 -696 332 -154 0 -313 -44
-434 -119 l-47 -29 -106 53 c-106 53 -185 79 -273 90 -49 6 -158 12 -162 8z"/>
<path d="M2487 5683 c-1 0 -36 -4 -77 -7 -74 -6 -145 -14 -185 -21 -146 -23
-217 -40 -352 -81 -234 -71 -470 -182 -679 -319 -65 -43 -121 -81 -124 -85 -3
-3 -32 -27 -65 -52 -153 -116 -340 -308 -468 -478 -303 -404 -468 -822 -527
-1335 -8 -75 -5 -441 4 -515 22 -166 54 -322 88 -435 12 -38 22 -74 24 -80 15
-74 145 -367 221 -499 129 -227 252 -386 443 -576 244 -244 549 -446 850 -564
69 -26 134 -52 145 -56 60 -24 271 -78 365 -94 218 -37 370 -47 432 -29 50 14
115 73 135 122 21 49 18 132 -5 177 -44 85 -105 120 -227 128 -430 31 -831
178 -1165 430 -30 22 -57 43 -60 46 -3 3 -23 20 -45 39 -244 206 -440 467
-582 776 -60 131 -126 330 -149 449 -2 12 -6 34 -10 49 -6 29 -8 43 -20 137
-3 30 -8 69 -10 85 -6 49 -6 317 0 360 3 22 8 65 11 95 17 147 70 352 135 515
138 349 417 711 726 943 75 56 202 142 209 142 2 0 36 19 77 42 135 76 428
187 541 203 23 4 44 8 48 10 7 5 127 24 204 33 82 9 385 9 465 -1 288 -35 583
-129 805 -255 33 -19 75 -43 94 -54 108 -62 256 -176 384 -298 l89 -84 -119
-32 c-549 -150 -1011 -482 -1326 -954 -48 -71 -174 -309 -209 -395 -17 -40
-86 -243 -93 -274 -13 -50 -54 -263 -60 -301 -14 -95 -13 -464 1 -565 21 -158
24 -173 55 -295 120 -469 405 -913 779 -1212 94 -75 213 -157 280 -194 19 -10
37 -21 40 -24 9 -10 212 -107 280 -134 111 -43 296 -98 380 -112 19 -4 40 -7
45 -9 39 -8 87 -16 125 -19 25 -3 68 -8 95 -12 66 -9 301 -9 390 0 446 45 836
194 1185 455 257 192 492 468 648 761 56 105 131 283 158 375 10 33 19 65 21
70 20 64 55 244 69 344 14 110 20 382 10 481 -17 175 -61 381 -113 530 -52
152 -152 368 -204 442 -11 14 -19 29 -19 32 0 8 -117 173 -164 231 -376 461
-915 765 -1481 835 -127 15 -167 19 -210 19 -38 1 -43 5 -92 69 -70 92 -141
171 -248 276 -115 113 -340 296 -364 296 -6 0 -11 4 -11 8 0 5 -12 15 -27 23
-15 8 -50 29 -78 47 -77 50 -318 167 -435 210 -164 61 -377 117 -520 137 -25
3 -56 8 -70 10 -84 13 -454 27 -463 18z m2382 -1537 c227 -20 440 -81 650
-183 96 -48 294 -169 311 -192 3 -3 23 -19 45 -36 107 -80 294 -290 388 -435
109 -171 224 -448 251 -603 3 -15 7 -35 10 -45 2 -9 7 -39 11 -67 3 -27 8 -65
11 -83 10 -53 11 -291 3 -377 -10 -97 -26 -191 -46 -265 -8 -30 -16 -64 -18
-75 -4 -19 -17 -55 -59 -173 -9 -23 -38 -86 -65 -140 -313 -623 -942 -1019
-1631 -1026 -238 -3 -407 24 -640 100 -82 28 -320 140 -320 152 0 4 37 26 83
49 340 174 699 494 925 824 107 156 242 403 267 489 4 14 11 30 15 35 25 32
118 349 145 500 51 275 55 601 10 880 -19 118 -61 288 -80 324 -64 125 -237
153 -339 56 -71 -66 -84 -143 -48 -280 11 -44 23 -98 26 -120 4 -22 8 -51 11
-65 22 -127 34 -401 21 -510 -3 -19 -7 -62 -11 -95 -7 -65 -39 -226 -57 -290
-6 -22 -12 -42 -13 -45 0 -3 -9 -30 -19 -60 -188 -558 -580 -1017 -1090 -1273
-85 -42 -233 -107 -245 -107 -7 0 -82 84 -139 156 -78 97 -212 329 -251 434
-70 189 -113 366 -127 520 -9 92 -8 279 0 363 76 717 556 1328 1231 1566 73
26 247 71 295 77 19 2 58 8 87 13 29 4 87 9 130 10 43 1 79 3 80 5 4 3 118 -1
192 -8z"/>
</g>
</svg>
